<svg width="12" height="15" viewBox="0 0 12 15" fill="none" xmlns="http://www.w3.org/2000/svg">
<path d="M1.34667 15C0.973334 15 0.655556 14.8689 0.393333 14.6067C0.131111 14.3444 0 14.0269 0 13.6542V6.34583C0 5.97361 0.131111 5.65611 0.393333 5.39333C0.655556 5.13111 0.973334 5 1.34667 5H2.5V3.33333C2.5 2.405 2.82361 1.6175 3.47083 0.970833C4.1175 0.323611 4.905 0 5.83333 0C6.76167 0 7.54944 0.323611 8.19667 0.970833C8.84389 1.61806 9.16722 2.40556 9.16667 3.33333V5H10.3208C10.6931 5 11.0106 5.13111 11.2733 5.39333C11.5356 5.65556 11.6667 5.97333 11.6667 6.34667V13.6542C11.6667 14.0264 11.5356 14.3439 11.2733 14.6067C11.0111 14.8689 10.6936 15 10.3208 15H1.34667ZM1.34667 14.1667H10.3208C10.4703 14.1667 10.5931 14.1186 10.6892 14.0225C10.7853 13.9264 10.8333 13.8036 10.8333 13.6542V6.34583C10.8333 6.19639 10.7853 6.07361 10.6892 5.9775C10.5931 5.88139 10.4703 5.83333 10.3208 5.83333H1.34583C1.19639 5.83333 1.07361 5.88139 0.9775 5.9775C0.881389 6.07361 0.833333 6.19667 0.833333 6.34667V13.6542C0.833333 13.8036 0.881389 13.9264 0.9775 14.0225C1.07361 14.1186 1.19667 14.1667 1.34667 14.1667ZM6.72167 10.8883C6.96278 10.6478 7.08333 10.3517 7.08333 10C7.08333 9.64833 6.96278 9.35222 6.72167 9.11167C6.48056 8.87111 6.18444 8.75056 5.83333 8.75C5.48222 8.74944 5.18611 8.87 4.945 9.11167C4.70389 9.35222 4.58333 9.64833 4.58333 10C4.58333 10.3517 4.70389 10.6478 4.945 10.8883C5.18556 11.1294 5.48167 11.25 5.83333 11.25C6.185 11.25 6.48111 11.1294 6.72167 10.8883ZM3.33333 5H8.33333V3.33333C8.33333 2.63889 8.09028 2.04861 7.60417 1.5625C7.11806 1.07639 6.52778 0.833333 5.83333 0.833333C5.13889 0.833333 4.54861 1.07639 4.0625 1.5625C3.57639 2.04861 3.33333 2.63889 3.33333 3.33333V5Z" fill="#929292"/>
</svg>
