<svg width="18" height="18" viewBox="0 0 18 18" fill="none" xmlns="http://www.w3.org/2000/svg">
<rect x="0.933333" y="0.933333" width="16.1333" height="16.1333" rx="8.06667" stroke="#5C5C5C" stroke-width="1.86667"/>
<path d="M6.36749 6.76923V7.95318H7.53137C7.78109 7.95318 7.95723 7.89744 8.0598 7.78595C8.16236 7.67447 8.21364 7.534 8.21364 7.36455C8.21364 7.19064 8.16236 7.04794 8.0598 6.93645C7.96169 6.82497 7.7967 6.76923 7.56481 6.76923H6.36749ZM8.05311 10.4415V9.29766C8.05311 9.08361 8.00405 8.932 7.90595 8.84281C7.80784 8.74916 7.62501 8.70234 7.35745 8.70234H6.36749V10.4415H5.46448V6H7.71866C7.92379 6 8.10885 6.03344 8.27384 6.10033C8.4433 6.16276 8.58822 6.25195 8.70862 6.36789C8.82903 6.47938 8.92044 6.61538 8.98287 6.77592C9.04976 6.932 9.08321 7.10145 9.08321 7.28428C9.08321 7.52508 9.02524 7.73913 8.90929 7.92642C8.79781 8.10925 8.63505 8.23857 8.421 8.31438C8.61721 8.37681 8.75545 8.47269 8.83571 8.60201C8.92044 8.73133 8.96281 8.92531 8.96281 9.18395V10.4415H8.05311Z" fill="#5C5C5C"/>
<path d="M10.9034 9.78595C11.4029 9.78595 11.6526 9.44705 11.6526 8.76923C11.6526 8.47492 11.5835 8.23634 11.4452 8.05351C11.307 7.86622 11.1286 7.77258 10.9101 7.77258C10.7005 7.77258 10.5244 7.85953 10.3817 8.03345C10.2435 8.20736 10.1743 8.43478 10.1743 8.71572C10.1743 9.42921 10.4174 9.78595 10.9034 9.78595ZM9.3516 12V7.1505H10.1877L10.1944 7.55184C10.3951 7.22631 10.7005 7.06355 11.1108 7.06355C11.3159 7.06355 11.5054 7.10368 11.6794 7.18395C11.8577 7.26421 12.0093 7.38016 12.1342 7.53177C12.2591 7.68339 12.3572 7.86845 12.4285 8.08696C12.4999 8.30546 12.5355 8.55295 12.5355 8.82943C12.5355 9.07915 12.5043 9.30881 12.4419 9.51839C12.3839 9.72352 12.297 9.9019 12.181 10.0535C12.0651 10.2051 11.9224 10.3233 11.7529 10.408C11.5879 10.4883 11.3984 10.5284 11.1844 10.5284C10.7786 10.5284 10.4531 10.3567 10.2078 10.0134V12H9.3516Z" fill="#5C5C5C"/>
</svg>
